<svg width="270" height="180" viewBox="0 0 2000 1000" fill="none" xmlns="http://www.w3.org/2000/svg">
<g clip-path="url(#clip0_403_2)">
<rect width="2000" height="1000"/>
<rect x="1397.77" y="199.256" width="144.603" height="199.256" fill="#90CFB2"/>
<rect x="555.202" y="109.306" width="881.28" height="54.653" fill="#90CFB2"/>
<rect x="573.419" y="109.306" width="64.9005" height="395.096" fill="#90CFB2"/>
<path d="M1367.81 871L1433 1045.52M589.186 871L523.997 1045.52M981.886 871V1103" stroke="#56B2FC" stroke-width="17"/>
<path d="M457.87 782L1504.55 782L1588 902H363.997L457.87 782Z" fill="#E3EEFF"/>
<path d="M363.997 934H1588V902H363.997V934Z" fill="#D1E4FF"/>
<path fill-rule="evenodd" clip-rule="evenodd" d="M534.537 51.0908C526.006 51.0908 519.091 58.0062 519.091 66.5369V122.669C517.642 125.783 514.449 130.103 509.585 130.103C505.984 130.103 502.351 128.366 499.614 126.537C496.346 122.549 491.381 120.004 485.822 120.004C475.979 120.004 468 127.983 468 137.826C468 147.669 475.979 155.649 485.822 155.649C491.381 155.649 496.346 153.104 499.614 149.115C502.351 147.287 505.984 145.549 509.585 145.549C514.449 145.549 517.642 149.869 519.091 152.984V209.116C519.091 217.646 526.006 224.562 534.537 224.562H589.192C592.162 223.572 598.103 220.166 598.103 214.462C598.103 210.861 596.366 207.228 594.537 204.491C590.549 201.222 588.004 196.258 588.004 190.699C588.004 180.856 595.983 172.877 605.826 172.877C615.669 172.877 623.648 180.856 623.648 190.699C623.648 196.258 621.104 201.222 617.115 204.491C615.286 207.228 613.549 210.861 613.549 214.462C613.549 220.166 619.49 223.572 622.46 224.562H677.116C685.646 224.562 692.562 217.646 692.562 209.116V154.46C693.552 151.49 696.958 145.549 702.661 145.549C706.262 145.549 709.895 147.287 712.632 149.115C715.901 153.104 720.865 155.649 726.424 155.649C736.267 155.649 744.246 147.669 744.246 137.826C744.246 127.983 736.267 120.004 726.424 120.004C720.865 120.004 715.901 122.549 712.632 126.537C709.895 128.366 706.262 130.103 702.661 130.103C696.958 130.103 693.552 124.162 692.562 121.192V66.5369C692.562 58.0062 685.646 51.0908 677.116 51.0908H534.537ZM617.115 71.1617C615.286 68.4246 613.549 64.7916 613.549 61.1902C613.549 55.487 619.49 52.081 622.46 51.0908H589.192C592.162 52.081 598.103 55.487 598.103 61.1902C598.103 64.7916 596.366 68.4246 594.537 71.1617C590.549 74.4301 588.004 79.3945 588.004 84.9533C588.004 94.7963 595.983 102.776 605.826 102.776C615.669 102.776 623.648 94.7963 623.648 84.9533C623.648 79.3945 621.104 74.4301 617.115 71.1617Z" fill="#90CFB2"/>
<path fill-rule="evenodd" clip-rule="evenodd" d="M1211.79 121.192L1211.79 66.5368C1211.79 58.0061 1204.87 51.0907 1196.34 51.0907L1140.21 51.0907C1137.09 49.6419 1132.77 46.4489 1132.77 41.5855C1132.77 37.9841 1134.51 34.3511 1136.34 31.614C1140.33 28.3455 1142.87 23.3811 1142.87 17.8223C1142.87 7.97933 1134.89 -3.36107e-06 1125.05 -3.79133e-06C1115.21 -4.22158e-06 1107.23 7.97933 1107.23 17.8223C1107.23 23.3811 1109.77 28.3455 1113.76 31.614C1115.59 34.3511 1117.33 37.9841 1117.33 41.5855C1117.33 46.4489 1113.01 49.6419 1109.89 51.0907L1053.76 51.0907C1045.23 51.0907 1038.32 58.0061 1038.32 66.5368L1038.32 209.116C1038.32 217.646 1045.23 224.562 1053.76 224.562L1108.42 224.562C1111.39 225.552 1117.33 228.958 1117.33 234.661C1117.33 238.262 1115.59 241.895 1113.76 244.632C1109.77 247.901 1107.23 252.865 1107.23 258.424C1107.23 268.267 1115.21 276.246 1125.05 276.246C1134.89 276.246 1142.87 268.267 1142.87 258.424C1142.87 252.865 1140.33 247.901 1136.34 244.632C1134.51 241.895 1132.77 238.262 1132.77 234.661C1132.77 228.958 1138.71 225.552 1141.68 224.562L1196.34 224.562C1204.87 224.562 1211.79 217.646 1211.79 209.116L1211.79 154.46C1210.8 151.49 1207.39 145.549 1201.69 145.549C1198.09 145.549 1194.45 147.286 1191.72 149.115C1188.45 153.104 1183.48 155.649 1177.92 155.649C1168.08 155.649 1160.1 147.669 1160.1 137.826C1160.1 127.983 1168.08 120.004 1177.92 120.004C1183.48 120.004 1188.45 122.549 1191.72 126.537C1194.45 128.366 1198.09 130.103 1201.69 130.103C1207.39 130.103 1210.8 124.163 1211.79 121.192ZM1072.18 155.649C1082.02 155.649 1090 147.669 1090 137.826C1090 127.983 1082.02 120.004 1072.18 120.004C1066.62 120.004 1061.65 122.549 1058.39 126.537C1055.65 128.366 1052.02 130.103 1048.41 130.103C1042.71 130.103 1039.31 124.162 1038.32 121.192L1038.32 154.46C1039.31 151.49 1042.71 145.549 1048.41 145.549C1052.02 145.549 1055.65 147.286 1058.39 149.115C1061.65 153.104 1066.62 155.649 1072.18 155.649Z" fill="#F5C6B8"/>
<path fill-rule="evenodd" clip-rule="evenodd" d="M1557.54 66.5368C1557.54 58.0061 1550.62 51.0907 1542.09 51.0907L1485.96 51.0907C1482.85 49.6419 1478.53 46.4489 1478.53 41.5855C1478.53 37.9841 1480.26 34.3511 1482.09 31.614C1486.08 28.3455 1488.63 23.3811 1488.63 17.8223C1488.63 7.97933 1480.65 -3.36107e-06 1470.8 -3.79133e-06C1460.96 -4.22158e-06 1452.98 7.97933 1452.98 17.8223C1452.98 23.3811 1455.53 28.3455 1459.51 31.614C1461.34 34.3511 1463.08 37.9841 1463.08 41.5855C1463.08 46.4489 1458.76 49.6419 1455.65 51.0907L1399.51 51.0907C1390.98 51.0907 1384.07 58.0061 1384.07 66.5368L1384.07 121.192C1385.06 124.162 1388.46 130.103 1394.17 130.103C1397.77 130.103 1401.4 128.366 1404.14 126.537C1407.41 122.549 1412.37 120.004 1417.93 120.004C1427.77 120.004 1435.75 127.983 1435.75 137.826C1435.75 147.669 1427.77 155.649 1417.93 155.649C1412.37 155.649 1407.41 153.104 1404.14 149.115C1401.4 147.286 1397.77 145.549 1394.17 145.549C1388.46 145.549 1385.06 151.49 1384.07 154.46L1384.07 209.116C1384.07 217.646 1390.98 224.562 1399.51 224.562L1454.17 224.562C1457.14 225.552 1463.08 228.958 1463.08 234.661C1463.08 238.262 1461.34 241.895 1459.51 244.632C1455.53 247.901 1452.98 252.865 1452.98 258.424C1452.98 268.267 1460.96 276.246 1470.8 276.246C1480.65 276.246 1488.63 268.267 1488.63 258.424C1488.63 252.865 1486.08 247.901 1482.09 244.632C1480.26 241.895 1478.53 238.262 1478.53 234.661C1478.53 228.958 1484.47 225.552 1487.44 224.562L1542.09 224.562C1550.62 224.562 1557.54 217.646 1557.54 209.116L1557.54 66.5368ZM1537.47 149.115C1540.21 147.286 1543.84 145.549 1547.44 145.549C1553.14 145.549 1556.55 151.49 1557.54 154.46L1557.54 121.192C1556.55 124.162 1553.14 130.103 1547.44 130.103C1543.84 130.103 1540.21 128.366 1537.47 126.537C1534.2 122.549 1529.24 120.004 1523.68 120.004C1513.83 120.004 1505.85 127.983 1505.85 137.826C1505.85 147.669 1513.83 155.649 1523.68 155.649C1529.24 155.649 1534.2 153.104 1537.47 149.115Z" fill="#F5C6B8"/>
<path fill-rule="evenodd" clip-rule="evenodd" d="M1557.54 412.291C1557.54 403.76 1550.62 396.845 1542.09 396.845L1485.96 396.845C1482.85 395.396 1478.53 392.203 1478.53 387.339C1478.53 383.738 1480.26 380.105 1482.09 377.368C1486.08 374.099 1488.63 369.135 1488.63 363.576C1488.63 353.733 1480.65 345.754 1470.8 345.754C1460.96 345.754 1452.98 353.733 1452.98 363.576C1452.98 369.135 1455.53 374.099 1459.51 377.368C1461.34 380.105 1463.08 383.738 1463.08 387.339C1463.08 392.203 1458.76 395.396 1455.65 396.845L1399.51 396.845C1390.98 396.845 1384.07 403.76 1384.07 412.291L1384.07 466.946C1385.06 469.916 1388.46 475.857 1394.17 475.857C1397.77 475.857 1401.4 474.12 1404.14 472.291C1407.41 468.303 1412.37 465.758 1417.93 465.758C1427.77 465.758 1435.75 473.737 1435.75 483.58C1435.75 493.423 1427.77 501.402 1417.93 501.402C1412.37 501.402 1407.41 498.858 1404.14 494.869C1401.4 493.04 1397.77 491.303 1394.17 491.303C1388.46 491.303 1385.06 497.244 1384.07 500.214L1384.07 554.869C1384.07 563.4 1390.98 570.315 1399.51 570.315L1454.17 570.315C1457.14 571.306 1463.08 574.712 1463.08 580.415C1463.08 584.016 1461.34 587.649 1459.51 590.386C1455.53 593.655 1452.98 598.619 1452.98 604.178C1452.98 614.021 1460.96 622 1470.8 622C1480.65 622 1488.63 614.021 1488.63 604.178C1488.63 598.619 1486.08 593.655 1482.09 590.386C1480.26 587.649 1478.53 584.016 1478.53 580.415C1478.53 574.712 1484.47 571.306 1487.44 570.315L1542.09 570.315C1550.62 570.315 1557.54 563.4 1557.54 554.869L1557.54 412.291ZM1537.47 494.869C1540.21 493.04 1543.84 491.303 1547.44 491.303C1553.14 491.303 1556.55 497.244 1557.54 500.214L1557.54 466.946C1556.55 469.916 1553.14 475.857 1547.44 475.857C1543.84 475.857 1540.21 474.12 1537.47 472.291C1534.2 468.303 1529.24 465.758 1523.68 465.758C1513.83 465.758 1505.85 473.737 1505.85 483.58C1505.85 493.423 1513.83 501.402 1523.68 501.402C1529.24 501.402 1534.2 498.858 1537.47 494.869Z" fill="#F5C6B8"/>
<path fill-rule="evenodd" clip-rule="evenodd" d="M617.115 416.916C615.286 414.178 613.549 410.545 613.549 406.944C613.549 401.241 619.49 397.835 622.46 396.845H677.116C685.646 396.845 692.562 403.76 692.562 412.291V466.946C693.552 469.916 696.958 475.857 702.661 475.857C706.262 475.857 709.895 474.12 712.632 472.291C715.901 468.303 720.865 465.758 726.424 465.758C736.267 465.758 744.246 473.737 744.246 483.58C744.246 493.423 736.267 501.403 726.424 501.403C720.865 501.403 715.901 498.858 712.632 494.869C709.895 493.04 706.262 491.303 702.661 491.303C696.958 491.303 693.552 497.244 692.562 500.214V554.87C692.562 563.4 685.646 570.316 677.116 570.316H534.537C526.006 570.316 519.091 563.4 519.091 554.87V498.738C517.642 495.623 514.449 491.303 509.585 491.303C505.984 491.303 502.351 493.04 499.614 494.869C496.346 498.858 491.381 501.403 485.822 501.403C475.979 501.403 468 493.423 468 483.58C468 473.737 475.979 465.758 485.822 465.758C491.381 465.758 496.346 468.303 499.614 472.291C502.351 474.12 505.984 475.857 509.585 475.857C514.449 475.857 517.642 471.537 519.091 468.423V412.291C519.091 403.76 526.006 396.845 534.537 396.845H589.192C592.163 397.835 598.103 401.241 598.103 406.944C598.103 410.545 596.366 414.178 594.537 416.916C590.549 420.184 588.004 425.148 588.004 430.707C588.004 440.55 595.983 448.529 605.826 448.529C615.669 448.529 623.648 440.55 623.648 430.707C623.648 425.148 621.104 420.184 617.115 416.916ZM623.648 536.453C623.648 526.61 615.669 518.631 605.826 518.631C595.983 518.631 588.004 526.61 588.004 536.453C588.004 542.012 590.549 546.976 594.537 550.245C596.366 552.982 598.103 556.615 598.103 560.216C598.103 565.919 592.162 569.325 589.192 570.316H622.46C619.49 569.325 613.549 565.919 613.549 560.216C613.549 556.615 615.286 552.982 617.115 550.245C621.104 546.976 623.648 542.012 623.648 536.453Z" fill="#90CFB2"/>
<path fill-rule="evenodd" clip-rule="evenodd" d="M855.933 145.549C861.636 145.549 865.042 151.49 866.032 154.46L866.032 209.116C866.032 217.646 859.117 224.562 850.586 224.562L795.931 224.562C792.961 225.552 787.02 228.958 787.02 234.661C787.02 238.262 788.757 241.895 790.586 244.632C794.574 247.901 797.119 252.865 797.119 258.424C797.119 268.267 789.14 276.246 779.297 276.246C769.454 276.246 761.474 268.267 761.474 258.424C761.474 252.865 764.019 247.901 768.008 244.632C769.837 241.895 771.574 238.262 771.574 234.661C771.574 228.958 765.633 225.552 762.663 224.562L708.007 224.562C699.477 224.562 692.561 217.646 692.561 209.116L692.561 154.46C693.551 151.49 696.958 145.549 702.661 145.549C706.262 145.549 709.895 147.286 712.632 149.115C715.901 153.104 720.865 155.649 726.424 155.649C736.267 155.649 744.246 147.669 744.246 137.826C744.246 127.983 736.267 120.004 726.424 120.004C720.865 120.004 715.901 122.549 712.632 126.537C709.895 128.366 706.262 130.103 702.661 130.103C696.958 130.103 693.551 124.162 692.561 121.192L692.561 66.5368C692.561 58.0061 699.477 51.0907 708.007 51.0907L764.139 51.0907C767.254 49.6419 771.574 46.4489 771.574 41.5855C771.574 37.9841 769.837 34.3511 768.008 31.614C764.019 28.3455 761.474 23.3811 761.474 17.8223C761.474 7.97933 769.454 -4.22158e-06 779.297 -3.79133e-06C789.14 -3.36107e-06 797.119 7.97933 797.119 17.8223C797.119 23.3811 794.574 28.3455 790.586 31.614C788.757 34.3511 787.02 37.9841 787.02 41.5855C787.02 46.4489 791.34 49.6419 794.454 51.0907L850.586 51.0907C859.117 51.0907 866.032 58.0061 866.032 66.5368L866.032 121.192C865.042 124.162 861.636 130.103 855.933 130.103C852.331 130.103 848.698 128.366 845.961 126.537C842.693 122.549 837.729 120.004 832.17 120.004C822.327 120.004 814.347 127.983 814.347 137.826C814.347 147.669 822.327 155.649 832.17 155.649C837.729 155.649 842.693 153.104 845.961 149.115C848.698 147.286 852.331 145.549 855.933 145.549Z" fill="#F5C6B8"/>
<path d="M605.866 171.93C615.751 171.93 623.764 179.904 623.764 189.742C623.764 195.297 621.208 200.259 617.203 203.525C615.366 206.261 613.622 209.892 613.622 213.491C613.622 219.191 619.588 222.595 622.571 223.585H677.458C686.025 223.585 692.969 230.496 692.969 239.022V293.646C691.975 296.614 688.554 302.552 682.827 302.552C679.21 302.552 675.562 300.815 672.813 298.987C669.531 295.002 664.546 292.458 658.963 292.458C649.078 292.458 641.065 300.433 641.065 310.27C641.065 320.108 649.078 328.082 658.963 328.082C664.546 328.082 669.531 325.539 672.813 321.553C675.562 319.725 679.21 317.989 682.827 317.989C688.554 317.989 691.975 323.926 692.969 326.895V381.519C692.969 390.044 686.025 396.956 677.458 396.956H622.571C619.588 397.945 613.622 401.349 613.622 407.049C613.622 410.648 615.366 414.279 617.203 417.015C621.208 420.282 623.764 425.243 623.764 430.799C623.764 440.636 615.751 448.611 605.866 448.611C595.981 448.611 587.968 440.636 587.968 430.799C587.968 425.243 590.524 420.282 594.529 417.015C596.366 414.279 598.11 410.648 598.11 407.049C598.11 401.349 592.144 397.945 589.161 396.956H534.274C525.707 396.956 518.763 390.044 518.763 381.519V326.895C519.757 323.926 523.178 317.989 528.905 317.989C532.522 317.989 536.17 319.725 538.919 321.553C542.201 325.539 547.186 328.082 552.769 328.082C562.654 328.082 570.667 320.108 570.667 310.27C570.667 300.433 562.654 292.458 552.769 292.458C547.186 292.458 542.201 295.002 538.919 298.987C536.17 300.815 532.522 302.552 528.905 302.552C523.178 302.552 519.757 296.614 518.763 293.646V239.022C518.763 230.496 525.707 223.585 534.274 223.585H589.161C592.144 222.595 598.11 219.191 598.11 213.491C598.11 209.892 596.366 206.261 594.529 203.525C590.524 200.259 587.968 195.297 587.968 189.742C587.968 179.904 595.981 171.93 605.866 171.93Z" fill="#F5C6B8"/>
<path d="M1090.34 137.771C1090.34 147.591 1082.37 155.552 1072.53 155.552C1066.97 155.552 1062.01 153.013 1058.75 149.034C1056.01 147.21 1052.38 145.476 1048.78 145.476C1043.08 145.476 1039.68 151.403 1038.69 154.367L1038.69 208.895C1038.69 217.406 1031.78 224.305 1023.25 224.305L968.626 224.305C965.658 223.317 959.72 219.919 959.72 214.229C959.72 210.636 961.457 207.012 963.284 204.281C967.27 201.02 969.814 196.067 969.814 190.521C969.814 180.701 961.839 172.741 952.002 172.741C942.164 172.741 934.19 180.701 934.19 190.521C934.19 196.067 936.733 201.02 940.719 204.281C942.547 207.012 944.283 210.636 944.283 214.229C944.283 219.919 938.346 223.317 935.377 224.305L880.753 224.305C872.228 224.305 865.316 217.406 865.316 208.895L865.316 154.367C864.327 151.403 860.923 145.476 855.223 145.476C851.623 145.476 847.993 147.21 845.257 149.034C841.99 153.013 837.029 155.552 831.473 155.552C821.636 155.552 813.661 147.591 813.661 137.771C813.661 127.951 821.636 119.99 831.473 119.99C837.029 119.99 841.99 122.529 845.257 126.508C847.993 128.333 851.623 130.066 855.223 130.066C860.923 130.066 864.327 124.139 865.316 121.176L865.316 66.6475C865.316 58.1367 872.228 51.2373 880.753 51.2373L935.377 51.2373C938.346 52.2251 944.283 55.6233 944.283 61.3132C944.283 64.9062 942.547 68.5308 940.719 71.2615C936.733 74.5224 934.19 79.4752 934.19 85.0211C934.19 94.8413 942.164 102.802 952.002 102.802C961.839 102.802 969.814 94.8413 969.814 85.0211C969.814 79.4752 967.27 74.5224 963.284 71.2615C961.457 68.5308 959.72 64.9062 959.72 61.3132C959.72 55.6233 965.658 52.2251 968.626 51.2373L1023.25 51.2373C1031.78 51.2373 1038.69 58.1367 1038.69 66.6475L1038.69 121.176C1039.68 124.139 1043.08 130.066 1048.78 130.066C1052.38 130.066 1056.01 128.333 1058.75 126.508C1062.01 122.529 1066.97 119.99 1072.53 119.99C1082.37 119.99 1090.34 127.951 1090.34 137.771Z" fill="#90CFB2"/>
<path d="M1436.48 137.771C1436.48 147.591 1428.5 155.552 1418.67 155.552C1413.11 155.552 1408.15 153.013 1404.88 149.034C1402.15 147.21 1398.52 145.476 1394.92 145.476C1389.22 145.476 1385.81 151.403 1384.82 154.367L1384.82 208.895C1384.82 217.406 1377.91 224.305 1369.39 224.305L1314.76 224.305C1311.79 223.317 1305.86 219.919 1305.86 214.229C1305.86 210.636 1307.59 207.012 1309.42 204.281C1313.41 201.02 1315.95 196.067 1315.95 190.521C1315.95 180.701 1307.97 172.741 1298.14 172.741C1288.3 172.741 1280.33 180.701 1280.33 190.521C1280.33 196.067 1282.87 201.02 1286.85 204.281C1288.68 207.012 1290.42 210.636 1290.42 214.229C1290.42 219.919 1284.48 223.317 1281.51 224.305L1226.89 224.305C1218.36 224.305 1211.45 217.406 1211.45 208.895L1211.45 154.367C1210.46 151.403 1207.06 145.476 1201.36 145.476C1197.76 145.476 1194.13 147.21 1191.39 149.034C1188.13 153.013 1183.16 155.552 1177.61 155.552C1167.77 155.552 1159.8 147.591 1159.8 137.771C1159.8 127.951 1167.77 119.99 1177.61 119.99C1183.16 119.99 1188.13 122.529 1191.39 126.508C1194.13 128.333 1197.76 130.066 1201.36 130.066C1207.06 130.066 1210.46 124.139 1211.45 121.176L1211.45 66.6475C1211.45 58.1367 1218.36 51.2373 1226.89 51.2373L1281.51 51.2373C1284.48 52.2251 1290.42 55.6233 1290.42 61.3132C1290.42 64.9062 1288.68 68.5308 1286.85 71.2615C1282.87 74.5224 1280.33 79.4752 1280.33 85.0211C1280.33 94.8413 1288.3 102.802 1298.14 102.802C1307.97 102.802 1315.95 94.8413 1315.95 85.0211C1315.95 79.4752 1313.41 74.5224 1309.42 71.2615C1307.59 68.5308 1305.86 64.9062 1305.86 61.3132C1305.86 55.6233 1311.79 52.2251 1314.76 51.2373L1369.39 51.2373C1377.91 51.2373 1384.82 58.1367 1384.82 66.6475L1384.82 121.176C1385.81 124.139 1389.22 130.066 1394.92 130.066C1398.52 130.066 1402.15 128.333 1404.88 126.508C1408.15 122.529 1413.11 119.99 1418.67 119.99C1428.5 119.99 1436.48 127.951 1436.48 137.771Z" fill="#90CFB2"/>
<path d="M1609.55 311.409C1609.55 321.294 1601.57 329.307 1591.73 329.307C1586.18 329.307 1581.22 326.751 1577.95 322.746C1575.21 320.909 1571.58 319.165 1567.98 319.165C1562.28 319.165 1558.88 325.131 1557.89 328.114L1557.89 383.001C1557.89 391.567 1550.98 398.512 1542.45 398.512L1487.83 398.512C1484.86 397.518 1478.92 394.097 1478.92 388.37C1478.92 384.753 1480.66 381.105 1482.49 378.356C1486.47 375.074 1489.02 370.089 1489.02 364.506C1489.02 354.621 1481.04 346.608 1471.21 346.608C1461.37 346.608 1453.39 354.621 1453.39 364.506C1453.39 370.089 1455.94 375.074 1459.92 378.356C1461.75 381.105 1463.49 384.753 1463.49 388.37C1463.49 394.097 1457.55 397.518 1454.58 398.512L1399.96 398.512C1391.43 398.512 1384.52 391.567 1384.52 383.001L1384.52 328.114C1383.53 325.131 1380.13 319.165 1374.43 319.165C1370.83 319.165 1367.2 320.909 1364.46 322.746C1361.19 326.751 1356.23 329.307 1350.68 329.307C1340.84 329.307 1332.86 321.294 1332.86 311.409C1332.86 301.524 1340.84 293.511 1350.68 293.511C1356.23 293.511 1361.19 296.067 1364.46 300.072C1367.2 301.909 1370.83 303.653 1374.43 303.653C1380.13 303.653 1383.53 297.687 1384.52 294.704L1384.52 239.817C1384.52 231.25 1391.43 224.306 1399.96 224.306L1454.58 224.306C1457.55 225.3 1463.49 228.72 1463.49 234.448C1463.49 238.065 1461.75 241.713 1459.92 244.462C1455.94 247.744 1453.39 252.729 1453.39 258.312C1453.39 268.197 1461.37 276.21 1471.21 276.21C1481.04 276.21 1489.02 268.197 1489.02 258.312C1489.02 252.729 1486.47 247.744 1482.49 244.462C1480.66 241.713 1478.92 238.065 1478.92 234.448C1478.92 228.72 1484.86 225.3 1487.83 224.306L1542.45 224.306C1550.98 224.306 1557.89 231.25 1557.89 239.817L1557.89 294.704C1558.88 297.687 1562.28 303.653 1567.98 303.653C1571.58 303.653 1575.21 301.909 1577.95 300.072C1581.22 296.067 1586.18 293.511 1591.73 293.511C1601.57 293.511 1609.55 301.524 1609.55 311.409Z" fill="#90CFB2"/>
<path d="M1138 738H1041V405" stroke="#FC9729" stroke-width="10"/>
<path d="M866.997 738H963.997V490" stroke="#1890F1" stroke-width="10"/>
<path d="M603.38 113.427C604.276 112.032 606.316 112.032 607.212 113.427L614.133 124.202C614.441 124.682 614.919 125.029 615.47 125.174L627.856 128.426C629.46 128.847 630.09 130.787 629.04 132.071L620.932 141.982C620.57 142.424 620.388 142.985 620.421 143.554L621.155 156.339C621.25 157.995 619.6 159.193 618.055 158.591L606.123 153.942C605.591 153.735 605.001 153.735 604.47 153.942L592.538 158.591C590.992 159.193 589.342 157.995 589.437 156.339L590.172 143.554C590.204 142.985 590.022 142.424 589.661 141.982L581.552 132.071C580.502 130.787 581.132 128.847 582.736 128.426L595.122 125.174C595.674 125.029 596.151 124.682 596.46 124.202L603.38 113.427Z" fill="#FDE533"/>
<path d="M953.153 158.632C965.833 158.632 976.112 147.857 976.112 134.565C976.112 121.274 965.833 110.499 953.153 110.499C940.472 110.499 930.193 121.274 930.193 134.565C930.193 147.857 940.472 158.632 953.153 158.632Z" fill="#EDC639"/>
<path d="M939.045 139.82C939.771 142.963 941.563 145.769 944.126 147.78C946.69 149.79 949.872 150.885 953.153 150.885C956.433 150.885 959.616 149.79 962.179 147.78C964.743 145.769 966.534 142.963 967.261 139.82H939.045Z" fill="#81530F"/>
<path d="M940.609 143.14H965.693C966.403 142.104 966.931 140.986 967.261 139.82H939.045C939.371 140.986 939.898 142.104 940.609 143.14V143.14Z" fill="white"/>
<path d="M947.62 133.182C948.995 133.182 950.11 130.21 950.11 126.543C950.11 122.877 948.995 119.904 947.62 119.904C946.245 119.904 945.13 122.877 945.13 126.543C945.13 130.21 946.245 133.182 947.62 133.182Z" fill="#81530F"/>
<path d="M958.685 133.182C960.06 133.182 961.175 130.21 961.175 126.543C961.175 122.877 960.06 119.904 958.685 119.904C957.31 119.904 956.195 122.877 956.195 126.543C956.195 130.21 957.31 133.182 958.685 133.182Z" fill="#81530F"/>
<path d="M965.797 140.908C964.898 143.501 963.195 145.752 960.927 147.346C958.66 148.94 955.941 149.797 953.153 149.797C950.364 149.797 947.646 148.94 945.378 147.346C943.111 145.752 941.408 143.501 940.508 140.908H965.797ZM967.261 139.82H939.045C939.771 142.963 941.563 145.769 944.126 147.78C946.689 149.79 949.872 150.885 953.153 150.885C956.433 150.885 959.616 149.79 962.179 147.78C964.743 145.769 966.535 142.963 967.261 139.82V139.82Z" fill="#81530F"/>
<path d="M1470.81 337.164C1485.24 337.164 1496.94 325.043 1496.94 310.09C1496.94 295.137 1485.24 283.015 1470.81 283.015C1456.38 283.015 1444.68 295.137 1444.68 310.09C1444.68 325.043 1456.38 337.164 1470.81 337.164Z" fill="#EDC639"/>
<path d="M1465.15 311.979C1466.71 311.979 1467.98 310.287 1467.98 308.201C1467.98 306.114 1466.71 304.423 1465.15 304.423C1463.58 304.423 1462.31 306.114 1462.31 308.201C1462.31 310.287 1463.58 311.979 1465.15 311.979Z" fill="#81530F"/>
<path d="M1477.74 311.979C1479.3 311.979 1480.57 310.287 1480.57 308.201C1480.57 306.114 1479.3 304.423 1477.74 304.423C1476.17 304.423 1474.91 306.114 1474.91 308.201C1474.91 310.287 1476.17 311.979 1477.74 311.979Z" fill="#81530F"/>
<path d="M1477.42 324.571C1476.99 323.113 1476.11 321.837 1474.92 320.93C1473.73 320.024 1472.29 319.534 1470.81 319.534C1469.33 319.534 1467.89 320.024 1466.7 320.93C1465.51 321.837 1464.64 323.113 1464.2 324.571H1477.42Z" fill="#81530F"/>
<path d="M1463.43 296.851L1454.4 302.185L1456 305.036L1465.04 299.702L1463.43 296.851Z" fill="#81530F"/>
<path d="M1476.88 299.702L1485.91 305.035L1487.52 302.184L1478.49 296.851L1476.88 299.702Z" fill="#81530F"/>
<path d="M1467.98 323.323C1467.98 324.99 1467.32 326.589 1466.14 327.767C1464.95 328.946 1463.35 329.608 1461.68 329.608C1460.01 329.608 1458.41 328.946 1457.23 327.767C1456.05 326.589 1455.39 324.99 1455.39 323.323C1455.39 318.934 1461.68 311.349 1461.68 311.349C1461.68 311.349 1467.98 318.738 1467.98 323.323Z" fill="#018FF6"/>
<path d="M878.541 579.989C868.266 579.989 859.937 571.66 859.937 561.385C859.937 555.582 862.593 550.4 866.757 546.988C868.666 544.131 870.479 540.338 870.479 536.579C870.479 530.625 864.278 527.07 861.177 526.036L804.124 526.036C795.219 526.036 788 518.817 788 509.912L788 452.859C789.033 449.758 792.589 443.557 798.542 443.557C802.302 443.557 806.094 445.37 808.951 447.279C812.363 451.443 817.546 454.099 823.348 454.099C833.623 454.099 841.953 445.77 841.953 435.495C841.953 425.22 833.623 416.89 823.348 416.89C817.546 416.89 812.363 419.547 808.951 423.71C806.094 425.619 802.302 427.433 798.542 427.433C792.589 427.433 789.033 421.231 788 418.131L788 361.077C788 352.172 795.219 344.953 804.124 344.953L861.177 344.953C864.278 343.92 870.479 340.364 870.479 334.411C870.479 330.651 868.666 326.859 866.757 324.002C862.594 320.59 859.937 315.407 859.937 309.605C859.937 299.33 868.266 291 878.541 291C888.816 291 897.146 299.33 897.146 309.605C897.146 315.407 894.489 320.59 890.326 324.002C888.417 326.859 886.603 330.651 886.603 334.411C886.603 340.364 892.805 343.92 895.906 344.953L952.959 344.953C961.864 344.953 969.083 352.172 969.083 361.077L969.083 418.131C968.049 421.231 964.494 427.433 958.541 427.433C954.781 427.433 950.989 425.619 948.131 423.71C944.72 419.547 939.537 416.89 933.735 416.89C923.46 416.89 915.13 425.22 915.13 435.495C915.13 445.77 923.46 454.099 933.735 454.099C939.537 454.099 944.72 451.443 948.131 447.279C950.989 445.37 954.781 443.557 958.541 443.557C964.494 443.557 968.049 449.758 969.083 452.859L969.083 509.913C969.083 518.817 961.864 526.036 952.959 526.036L895.906 526.036C892.805 527.07 886.603 530.625 886.603 536.579C886.603 540.338 888.417 544.131 890.326 546.988C894.489 550.4 897.146 555.582 897.146 561.385C897.146 571.66 888.816 579.989 878.541 579.989Z" fill="#F5C6B8"/>
<path d="M873.608 416.983L856.965 445.809C856.901 445.92 856.859 446.043 856.844 446.17C856.828 446.298 856.838 446.427 856.874 446.55C856.909 446.674 856.969 446.789 857.05 446.888C857.132 446.988 857.232 447.07 857.346 447.129C861.993 449.518 867.38 450.028 872.393 448.553C877.405 447.079 881.658 443.732 884.271 439.207L901.402 409.535C896.729 406.837 891.175 406.106 885.963 407.503C880.75 408.9 876.306 412.31 873.608 416.983V416.983Z" fill="#0071CC"/>
<path d="M874.884 409.541L873.617 410.809L879.441 416.633L880.708 415.365L874.884 409.541Z" fill="#0071CC"/>
<path d="M873.112 411.725C874.597 411.725 875.801 410.521 875.801 409.036C875.801 407.551 874.597 406.348 873.112 406.348C871.628 406.348 870.424 407.551 870.424 409.036C870.424 410.521 871.628 411.725 873.112 411.725Z" fill="#0071CC"/>
<path d="M870.884 427.155L870.884 460.461C870.884 460.59 870.909 460.717 870.96 460.835C871.01 460.953 871.083 461.06 871.176 461.149C871.268 461.238 871.378 461.308 871.498 461.353C871.618 461.399 871.746 461.42 871.874 461.415C877.093 461.16 882.015 458.908 885.618 455.124C889.222 451.341 891.232 446.316 891.232 441.09V406.807C888.56 406.807 885.914 407.333 883.445 408.356C880.977 409.378 878.734 410.877 876.844 412.766C874.955 414.656 873.456 416.899 872.433 419.368C871.411 421.837 870.884 424.483 870.884 427.155V427.155Z" fill="#018FF6"/>
<path d="M877.158 427.155C877.158 430.888 878.641 434.467 881.28 437.107C883.919 439.746 887.499 441.229 891.231 441.229V413.082C889.383 413.082 887.553 413.446 885.846 414.153C884.138 414.861 882.587 415.897 881.28 417.204C879.973 418.511 878.937 420.062 878.229 421.77C877.522 423.477 877.158 425.307 877.158 427.155V427.155Z" fill="white"/>
<path d="M903.792 430.818L891.232 427.154V441.227C894.101 441.227 896.901 440.35 899.258 438.715C901.614 437.079 903.414 434.762 904.417 432.074C904.464 431.951 904.485 431.82 904.478 431.688C904.471 431.557 904.438 431.428 904.379 431.31C904.32 431.192 904.238 431.087 904.137 431.003C904.036 430.918 903.919 430.855 903.792 430.818Z" fill="#FF9A07"/>
<path d="M910.469 420.51C909.086 416.509 906.489 413.039 903.042 410.583C899.594 408.127 895.466 406.807 891.233 406.807V427.154L909.831 421.729C909.955 421.694 910.07 421.633 910.17 421.552C910.269 421.47 910.351 421.37 910.411 421.256C910.471 421.142 910.507 421.017 910.517 420.889C910.527 420.76 910.511 420.631 910.469 420.51V420.51Z" fill="#FF9A07"/>
<path d="M885.404 423.562C886.638 423.562 887.638 422.562 887.638 421.328C887.638 420.095 886.638 419.095 885.404 419.095C884.17 419.095 883.17 420.095 883.17 421.328C883.17 422.562 884.17 423.562 885.404 423.562Z" fill="#07133D"/>
<ellipse cx="796.013" cy="118.415" rx="8.53954" ry="9.10884" fill="#1890F1"/>
<path d="M776.946 138C777.735 139.696 778.919 142.409 778.656 146.649C778.433 150.242 774.228 153.601 773 153.94" stroke="#1890F1" stroke-width="5.36005"/>
<path d="M753.315 136.768L766.224 129.801L775.657 140.171L769.864 143.736L781.78 166.258L771.354 171.929L753.315 136.768Z" fill="#1890F1"/>
<path d="M781.493 101.336L765.84 129.313L774.761 140.049L804.552 138.097C804.552 135.603 803.142 126.593 797.82 116.788C792.434 106.866 784.803 102.746 781.493 101.336Z" fill="#026EC6"/>
<path d="M1441.1 120.028C1441.1 114.765 1445.37 110.499 1450.63 110.499H1492.17C1497.43 110.499 1501.7 114.765 1501.7 120.028V138.571C1501.7 143.833 1497.43 148.1 1492.17 148.1H1451.13L1444.41 158.936C1443.46 160.464 1441.1 159.792 1441.1 157.994V120.028Z" fill="#1890F1"/>
<circle cx="1457.64" cy="130.098" r="5.3943" fill="#E6F0FF"/>
<circle cx="1471.31" cy="130.098" r="5.3943" fill="#E6F0FF"/>
<circle cx="1484.97" cy="130.098" r="5.3943" fill="#E6F0FF"/>
<rect x="577.97" y="290.345" width="54.653" height="40.9898" rx="4.55442" fill="#FFFFFD"/>
<path d="M577.97 294.899C577.97 292.384 580.009 290.345 582.524 290.345H598.465V331.335H582.524C580.009 331.335 577.97 329.295 577.97 326.78V294.899Z" fill="#E6F0FF"/>
<path d="M577.97 294.899C577.97 292.384 580.009 290.345 582.524 290.345H628.068C630.584 290.345 632.623 292.384 632.623 294.899V299.454H577.97V294.899Z" fill="#018FF6"/>
<circle cx="584.802" cy="294.898" r="2.27721" fill="#FFFFFD"/>
<circle cx="593.911" cy="294.898" r="2.27721" fill="#FFFFFD"/>
<circle cx="603.019" cy="294.898" r="2.27721" fill="#FFFFFD"/>
<path d="M1280.49 119.554L1287.29 153.558L1294.56 142.478L1310.23 155.989L1313.89 152.109L1300.84 136.346L1314.65 132.796L1280.49 119.554Z" fill="#1890F1"/>
<circle cx="1470.64" cy="480.492" r="18.787" stroke="#018FF6" stroke-width="17.0791"/>
<mask id="path-58-inside-1_403_2" fill="white">
<path d="M1497.96 480.492C1497.96 476.903 1497.26 473.35 1495.88 470.034C1494.51 466.719 1492.5 463.706 1489.96 461.169C1487.42 458.631 1484.41 456.618 1481.09 455.245C1477.78 453.872 1474.22 453.165 1470.64 453.165L1470.64 471.005C1471.88 471.005 1473.12 471.25 1474.27 471.727C1475.42 472.204 1476.46 472.902 1477.34 473.783C1478.23 474.664 1478.92 475.71 1479.4 476.861C1479.88 478.012 1480.12 479.246 1480.12 480.492H1497.96Z"/>
</mask>
<path d="M1497.96 480.492C1497.96 476.903 1497.26 473.35 1495.88 470.034C1494.51 466.719 1492.5 463.706 1489.96 461.169C1487.42 458.631 1484.41 456.618 1481.09 455.245C1477.78 453.872 1474.22 453.165 1470.64 453.165L1470.64 471.005C1471.88 471.005 1473.12 471.25 1474.27 471.727C1475.42 472.204 1476.46 472.902 1477.34 473.783C1478.23 474.664 1478.92 475.71 1479.4 476.861C1479.88 478.012 1480.12 479.246 1480.12 480.492H1497.96Z" stroke="#FC9729" stroke-width="34.1582" mask="url(#path-58-inside-1_403_2)"/>
<mask id="path-59-inside-2_403_2" fill="white">
<path d="M1470.64 453.165C1463.95 453.165 1457.5 455.616 1452.5 460.055L1464.34 473.397C1466.07 471.856 1468.31 471.005 1470.64 471.005L1470.64 453.165Z"/>
</mask>
<path d="M1470.64 453.165C1463.95 453.165 1457.5 455.616 1452.5 460.055L1464.34 473.397C1466.07 471.856 1468.31 471.005 1470.64 471.005L1470.64 453.165Z" stroke="#90CFB2" stroke-width="34.1582" mask="url(#path-59-inside-2_403_2)"/>
<mask id="path-60-inside-3_403_2" fill="white">
<path d="M1452.61 459.952C1449.13 463.011 1446.48 466.908 1444.91 471.275C1443.35 475.642 1442.92 480.335 1443.67 484.913C1444.42 489.49 1446.32 493.802 1449.2 497.44C1452.08 501.079 1455.83 503.925 1460.11 505.711L1466.98 489.247C1465.5 488.627 1464.19 487.639 1463.19 486.376C1462.2 485.112 1461.53 483.616 1461.27 482.027C1461.01 480.437 1461.16 478.808 1461.71 477.292C1462.25 475.776 1463.17 474.423 1464.38 473.361L1452.61 459.952Z"/>
</mask>
<path d="M1452.61 459.952C1449.13 463.011 1446.48 466.908 1444.91 471.275C1443.35 475.642 1442.92 480.335 1443.67 484.913C1444.42 489.49 1446.32 493.802 1449.2 497.44C1452.08 501.079 1455.83 503.925 1460.11 505.711L1466.98 489.247C1465.5 488.627 1464.19 487.639 1463.19 486.376C1462.2 485.112 1461.53 483.616 1461.27 482.027C1461.01 480.437 1461.16 478.808 1461.71 477.292C1462.25 475.776 1463.17 474.423 1464.38 473.361L1452.61 459.952Z" stroke="#09133C" stroke-width="34.1582" mask="url(#path-60-inside-3_403_2)"/>
<path d="M1113.95 128.233C1112.17 121.924 1112.05 109.306 1125.84 109.306C1138.34 109.306 1139.58 119.9 1133.41 127.971C1128.83 133.968 1123.46 140.315 1123.46 147.863V154.85" stroke="#1890F1" stroke-width="7.97024"/>
<ellipse cx="1123.93" cy="167.375" rx="3.98512" ry="4.55442" fill="#1890F1"/>
<path d="M582.153 496.67L590.38 483.58L635.53 471.104L585.21 499.859C583.153 501.035 580.891 498.676 582.153 496.67Z" fill="#0071CC"/>
<path d="M579.407 473.451L590.38 483.58L635.53 471.105L581.018 469.501C578.913 469.439 577.859 472.022 579.407 473.451Z" fill="#5DAFF1"/>
<path d="M591.812 500.768L590.38 483.58L635.53 471.104L595.483 502.374C594.056 503.488 591.963 502.572 591.812 500.768Z" fill="#1890F1"/>
<path fill-rule="evenodd" clip-rule="evenodd" d="M1113.36 446.203C1113.36 451.935 1107.39 455.358 1104.41 456.354L1049.47 456.353C1040.9 456.353 1033.95 449.403 1033.95 440.829L1033.95 385.895C1032.95 382.91 1029.53 376.939 1023.8 376.939C1020.18 376.939 1016.53 378.685 1013.77 380.523C1010.49 384.532 1005.5 387.09 999.913 387.09C990.02 387.09 982 379.07 982 369.177C982 359.283 990.02 351.263 999.913 351.263C1005.5 351.263 1010.49 353.821 1013.77 357.83C1016.53 359.668 1020.18 361.414 1023.8 361.414C1029.53 361.414 1032.95 355.443 1033.95 352.458L1033.95 297.524C1033.95 288.95 1040.9 282 1049.47 282L1104.41 282C1107.39 282.995 1113.36 286.418 1113.36 292.15C1113.36 295.77 1111.62 299.422 1109.78 302.173C1105.77 305.458 1103.21 310.447 1103.21 316.034C1103.21 325.928 1111.23 333.948 1121.12 333.948C1131.02 333.948 1139.04 325.928 1139.04 316.034C1139.04 310.447 1136.48 305.458 1132.47 302.173C1130.63 299.422 1128.89 295.77 1128.89 292.15C1128.89 286.418 1134.86 282.995 1137.84 282L1192.78 282C1201.35 282 1208.3 288.95 1208.3 297.524L1208.3 353.942C1209.76 357.072 1212.97 361.414 1217.86 361.414C1221.47 361.414 1225.13 359.668 1227.88 357.83C1231.16 353.821 1236.15 351.264 1241.74 351.264C1251.63 351.264 1259.65 359.283 1259.65 369.177C1259.65 379.07 1251.63 387.09 1241.74 387.09C1236.15 387.09 1231.16 384.532 1227.88 380.523C1225.13 378.685 1221.47 376.939 1217.86 376.939C1212.97 376.939 1209.76 381.281 1208.3 384.411L1208.3 440.829C1208.3 449.403 1201.35 456.353 1192.78 456.353L1137.84 456.354C1134.86 455.358 1128.89 451.935 1128.89 446.203C1128.89 442.583 1130.63 438.932 1132.47 436.181C1136.48 432.895 1139.04 427.906 1139.04 422.319C1139.04 412.426 1131.02 404.406 1121.12 404.406C1111.23 404.406 1103.21 412.426 1103.21 422.319C1103.21 427.906 1105.77 432.895 1109.78 436.18C1111.62 438.932 1113.36 442.583 1113.36 446.203Z" fill="#90CFB2"/>
<path fill-rule="evenodd" clip-rule="evenodd" d="M1133.21 380.18C1135.71 379.264 1138.06 377.802 1140.07 375.794C1147.45 368.411 1147.45 356.441 1140.07 349.058C1132.68 341.675 1120.71 341.675 1113.33 349.058C1111.26 351.125 1109.77 353.552 1108.86 356.138L1108.85 356.122C1108.82 356.213 1108.8 356.304 1108.78 356.394C1108.52 357.152 1108.32 357.923 1108.16 358.702C1105.31 369.324 1104 373.122 1101.56 375.567C1101.33 376.402 1101.86 379.061 1105.81 383.01C1105.89 383.087 1105.96 383.162 1106.04 383.237C1106.11 383.313 1106.19 383.389 1106.27 383.466C1110.22 387.416 1112.87 387.948 1113.71 387.72C1116.34 385.087 1120.55 383.77 1133.15 380.428L1133.07 380.345C1133.15 380.323 1133.23 380.3 1133.31 380.276L1133.21 380.18Z" fill="#FDE533"/>
<path d="M1122.82 375.262C1113.1 381.582 1110.01 385.238 1109.68 386.276C1104.25 385.422 1102.52 383.624 1101.33 378.528C1106.27 377.085 1113.16 363.383 1116.44 357.792C1120.55 350.804 1118.27 356.273 1116.44 360.679C1114.62 365.084 1116.06 364.401 1120.7 359.16C1125.33 353.919 1123.96 357.868 1121.53 362.881C1119.1 367.895 1117.66 371.161 1119.71 369.414C1121.76 367.667 1125.25 366.148 1122.14 369.414C1119.03 372.68 1121.08 373.515 1125.71 371.465C1130.34 369.414 1134.98 367.363 1122.82 375.262Z" stroke="#EDC639" stroke-width="1.98598" stroke-linecap="round"/>
<path d="M1097.91 375.111C1099.06 373.956 1100.72 374.934 1101.4 375.567C1101.4 376.63 1103.08 380.276 1105.96 383.162C1108.27 385.471 1112.04 387.213 1113.63 387.796C1114.27 388.479 1115.24 390.135 1114.09 391.29C1112.65 392.733 1111.51 390.682 1110.75 391.442C1109.99 392.201 1112.11 393.265 1110.67 394.708C1109.23 396.151 1108.47 393.72 1107.4 394.784C1106.34 395.847 1108.54 396.834 1107.18 398.202C1105.58 399.797 1101.63 396.607 1097.07 392.049C1092.9 387.872 1089.63 383.39 1091 382.023C1092.37 380.656 1093.35 382.858 1094.42 381.795C1095.48 380.732 1093.05 379.972 1094.49 378.529C1095.94 377.086 1097 379.213 1097.76 378.453C1098.52 377.693 1096.47 376.554 1097.91 375.111Z" fill="#BFD4F3"/>
<path d="M1098.52 378.909C1099.28 380.327 1101.78 384.029 1105.73 387.492M1106.57 393.797C1105.96 393.493 1103.71 391.852 1099.58 387.72" stroke="#E3EEFF" stroke-width="1.98598" stroke-linecap="round"/>
<path d="M1322.17 838.767C1323.12 837.646 1324.51 837 1325.98 837H1397.2C1401.46 837 1403.77 841.985 1401.02 845.233L1379.82 870.233C1378.87 871.354 1377.48 872 1376.01 872H1304.79C1300.53 872 1298.22 867.015 1300.98 863.767L1322.17 838.767Z" fill="#C0D9FF"/>
<path d="M1968.25 604.197C1959.38 578.109 1954.69 571.848 1918.69 540.25L1910.86 523.324C1908.44 509.366 1895.39 455.366 1897.82 441.408C1897.82 441.408 1857.62 491.493 1841.61 496.596C1825.55 491.493 1821.14 498.063 1821.14 498.063C1823.55 512.022 1827.94 529.001 1821.14 540.25C1814.33 551.499 1815.38 553.587 1799.72 567.152C1784.07 580.718 1762.57 600.577 1747.55 607.85C1732.52 615.122 1690.05 647.631 1696.42 666.287C1701.69 681.699 1802.4 655.945 1841.58 650.904C1880.85 655.945 1962.98 700.482 1968.25 685.07C1974.62 666.414 1977.12 630.285 1968.25 604.197Z" fill="#F5B8A9"/>
<path d="M1808.07 618.285C1781.78 612.859 1791.55 582.283 1799.72 567.674C1728.76 592.719 1666.5 685.592 1644.24 728.898L1648.41 734.116C1641.28 775.335 1626.4 862.26 1623.89 880.208C1621.39 898.157 1592.24 969.081 1577.98 1002.3H1914.51C1912.08 954.994 1914.09 846.085 1941.64 788.9C1976.08 717.419 1978.69 634.459 1967.21 600.023C1958.03 572.474 1932.08 549.239 1920.25 541.064C1917.64 541.412 1907.62 543.986 1888.42 551.5C1864.42 560.891 1840.94 625.068 1808.07 618.285Z" fill="#1890F1"/>
<path d="M1611.89 768.552C1631.93 763.126 1644.94 742.638 1648.94 733.072C1678.57 746.847 1691.2 789.248 1693.81 808.727L1621.5 814L1517.97 808.727C1540.93 797.597 1591.86 773.978 1611.89 768.552Z" fill="#F5B8A9"/>
<path d="M1168.4 833.25L1080.74 586.458H1335.36L1431.36 810.293L1168.4 833.25Z" fill="#FDCB94"/>
<path d="M1166.31 834.815L1160.57 814.467L1431.36 834.815H1166.31Z" fill="#DD7A0F"/>
<path d="M1426.14 797.771L1160.57 814.467L1430.84 834.815L1627.02 810.293L1426.14 797.771Z" fill="#FC9729"/>
<path d="M1211.67 730.418C1212.51 732.751 1210.44 734.332 1209.3 734.831L1185.6 736.563C1181.9 736.833 1177.88 734.224 1176.62 730.734L1168.57 708.377C1167.7 707.194 1165.35 704.872 1162.88 705.052C1161.32 705.166 1160 705.992 1159.08 706.827C1158.25 708.562 1156.47 709.76 1154.06 709.936C1149.79 710.248 1145.16 707.237 1143.71 703.211C1142.26 699.185 1144.54 695.668 1148.81 695.356C1151.22 695.18 1153.75 696.063 1155.75 697.591C1157.21 698.253 1159.04 698.848 1160.6 698.734C1163.07 698.553 1163.68 696.015 1163.67 694.769L1155.61 672.412C1154.36 668.922 1156.34 665.875 1160.04 665.604L1183.74 663.872C1185.17 664.183 1188.25 665.388 1189.09 667.721C1189.62 669.194 1189.4 670.736 1189.01 671.913C1187.76 673.376 1187.39 675.488 1188.21 677.762C1189.66 681.788 1194.3 684.799 1198.57 684.487C1202.83 684.175 1205.12 680.658 1203.67 676.632C1202.85 674.358 1201.01 672.408 1198.8 671.198C1197.61 670.136 1196.32 668.705 1195.79 667.232C1194.95 664.899 1197.02 663.317 1198.16 662.818L1221.86 661.086C1225.56 660.816 1229.58 663.426 1230.84 666.915L1239.11 689.876C1240.19 691.104 1242.22 692.77 1244.32 692.616C1245.89 692.502 1247.21 691.676 1248.12 690.841C1248.95 689.106 1250.73 687.908 1253.14 687.732C1257.41 687.42 1262.04 690.431 1263.49 694.457C1264.94 698.484 1262.66 702.001 1258.39 702.312C1255.98 702.489 1253.45 701.605 1251.45 700.077C1249.99 699.416 1248.16 698.82 1246.6 698.934C1244.49 699.088 1243.74 700.957 1243.57 702.277L1251.84 725.238C1253.1 728.727 1251.12 731.775 1247.42 732.045L1223.72 733.777C1222.29 733.466 1219.21 732.261 1218.37 729.928C1217.84 728.455 1218.06 726.914 1218.45 725.736C1219.7 724.273 1220.07 722.162 1219.25 719.888C1217.8 715.862 1213.16 712.85 1208.89 713.162C1204.63 713.474 1202.34 716.991 1203.79 721.017C1204.61 723.291 1206.45 725.241 1208.66 726.452C1209.85 727.514 1211.14 728.945 1211.67 730.418Z" fill="#FC9729"/>
<path d="M1270.58 634.258L1259.47 651.678L1275.64 661.993" stroke="#FC9729" stroke-width="10"/>
<path d="M1358.32 725.692L1376.06 736.28L1366.23 752.754" stroke="#FC9729" stroke-width="10"/>
<path fill-rule="evenodd" clip-rule="evenodd" d="M1289.44 655.331H1346.84L1341.62 644.896H1284.23L1289.44 655.331Z" fill="#FC9729"/>
<path fill-rule="evenodd" clip-rule="evenodd" d="M1293.62 744.03H1351.01L1345.79 733.595H1288.4L1293.62 744.03Z" fill="#FC9729"/>
<path fill-rule="evenodd" clip-rule="evenodd" d="M1279.01 700.202H1364.58L1359.36 689.767H1273.79L1279.01 700.202Z" fill="#FC9729"/>
<path d="M1892.64 316.264C1898.43 316.264 1903.12 311.575 1903.12 305.79C1903.12 300.005 1898.43 295.315 1892.64 295.315C1886.85 295.315 1882.16 300.005 1882.16 305.79C1882.16 311.575 1886.85 316.264 1892.64 316.264Z" fill="#FC9729"/>
<path d="M1893.64 438.8C1877.69 490.454 1853.09 509.237 1802.86 509.237C1752.62 509.237 1718.34 450.945 1718.34 400.447C1718.16 388.35 1720.38 376.338 1724.87 365.111C1729.36 353.883 1736.03 343.663 1744.49 335.046C1752.95 326.428 1763.04 319.585 1774.16 314.914C1785.28 310.243 1797.21 307.838 1809.26 307.838C1821.32 307.838 1833.25 310.243 1844.37 314.914C1855.49 319.585 1865.58 326.428 1874.04 335.046C1882.5 343.663 1895.45 342.16 1899.94 353.388C1904.43 364.616 1903.68 358.781 1899.94 391.353L1893.64 438.8Z" fill="#F5C6B8"/>
<path d="M1738.16 408.001C1738.15 409.033 1738.43 410.044 1738.94 410.904C1739.46 411.764 1740.19 412.435 1741.05 412.832C1741.9 413.23 1742.85 413.335 1743.76 413.136C1744.67 412.936 1745.51 412.44 1746.17 411.711C1746.83 410.982 1747.28 410.053 1747.46 409.04C1747.64 408.028 1747.55 406.978 1747.19 406.023C1746.84 405.069 1746.24 404.253 1745.46 403.679C1744.69 403.105 1743.78 402.799 1742.85 402.799C1742.24 402.797 1741.63 402.93 1741.06 403.19C1740.49 403.451 1739.97 403.834 1739.53 404.317C1739.1 404.8 1738.75 405.374 1738.51 406.006C1738.28 406.638 1738.16 407.316 1738.16 408.001" fill="#09133C"/>
<path d="M1789.29 398.608C1789.29 399.641 1789.56 400.651 1790.07 401.511C1790.59 402.371 1791.32 403.042 1792.18 403.44C1793.04 403.837 1793.98 403.943 1794.89 403.743C1795.8 403.544 1796.64 403.048 1797.3 402.319C1797.96 401.59 1798.41 400.66 1798.59 399.648C1798.77 398.635 1798.68 397.585 1798.33 396.631C1797.97 395.677 1797.37 394.861 1796.6 394.287C1795.82 393.713 1794.91 393.406 1793.99 393.406C1793.37 393.404 1792.76 393.537 1792.19 393.798C1791.62 394.058 1791.1 394.441 1790.67 394.924C1790.23 395.407 1789.88 395.982 1789.65 396.614C1789.41 397.246 1789.29 397.924 1789.29 398.608" fill="#09133C"/>
<path fill-rule="evenodd" clip-rule="evenodd" d="M1794.42 372.588C1797.54 372.346 1800.67 372.958 1803.48 374.36C1806.28 375.761 1808.65 377.898 1810.33 380.542C1810.64 381.024 1810.5 381.662 1810.01 381.968C1809.53 382.274 1808.89 382.132 1808.59 381.651C1807.11 379.323 1805.02 377.441 1802.55 376.207C1800.08 374.974 1797.33 374.435 1794.58 374.647C1794.01 374.692 1793.51 374.266 1793.47 373.697C1793.42 373.129 1793.85 372.632 1794.42 372.588Z" fill="#09133C"/>
<path fill-rule="evenodd" clip-rule="evenodd" d="M1737.57 384.399C1734.56 385.272 1731.84 386.947 1729.71 389.246C1727.58 391.544 1726.12 394.378 1725.47 397.445C1725.36 398.003 1725.71 398.551 1726.27 398.668C1726.83 398.785 1727.38 398.427 1727.5 397.869C1728.06 395.169 1729.35 392.673 1731.23 390.65C1733.1 388.627 1735.5 387.152 1738.15 386.383C1738.69 386.224 1739.01 385.651 1738.85 385.103C1738.69 384.555 1738.12 384.239 1737.57 384.399Z" fill="#09133C"/>
<path fill-rule="evenodd" clip-rule="evenodd" d="M1764.45 394.624C1763.88 394.562 1763.37 394.972 1763.31 395.539L1764.34 395.651C1763.31 395.539 1763.31 395.539 1763.31 395.539L1763.31 395.545L1763.31 395.559L1763.3 395.614C1763.3 395.661 1763.29 395.73 1763.28 395.821C1763.26 396.003 1763.24 396.271 1763.21 396.617C1763.15 397.311 1763.08 398.321 1763.01 399.596C1762.87 402.146 1762.76 405.759 1762.86 410.018C1763.06 418.525 1764.11 429.662 1767.52 440.074C1767.64 440.425 1767.93 440.687 1768.29 440.763C1770.09 441.142 1771.94 441.149 1773.74 440.783C1775.54 440.416 1777.25 439.685 1778.75 438.634C1779.22 438.307 1779.34 437.663 1779.01 437.195C1778.68 436.727 1778.04 436.613 1777.57 436.94C1776.3 437.829 1774.85 438.448 1773.33 438.758C1772 439.029 1770.63 439.059 1769.3 438.849C1766.12 428.871 1765.12 418.213 1764.93 409.969C1764.83 405.772 1764.94 402.214 1765.07 399.706C1765.14 398.453 1765.21 397.463 1765.27 396.789C1765.3 396.451 1765.32 396.193 1765.34 396.02C1765.35 395.933 1765.35 395.868 1765.36 395.825L1765.36 395.777L1765.36 395.766L1765.36 395.763C1765.36 395.763 1765.36 395.763 1765.36 395.763C1765.43 395.196 1765.02 394.686 1764.45 394.624Z" fill="#744F41"/>
<path fill-rule="evenodd" clip-rule="evenodd" d="M1814.92 430.149C1815.53 430.247 1815.95 430.822 1815.85 431.434L1814.74 431.258C1815.85 431.434 1815.85 431.435 1815.85 431.436L1815.85 431.437L1815.85 431.441L1815.85 431.453L1815.84 431.489C1815.83 431.519 1815.83 431.561 1815.82 431.614C1815.79 431.72 1815.76 431.871 1815.72 432.064C1815.63 432.449 1815.48 433.001 1815.26 433.692C1814.82 435.074 1814.06 437.013 1812.81 439.288C1810.32 443.841 1805.85 449.722 1797.98 455.164L1797.96 455.175L1797.96 455.175C1788.12 461.728 1776.44 464.979 1764.63 464.456C1764.01 464.429 1763.53 463.904 1763.56 463.285C1763.58 462.666 1764.11 462.186 1764.73 462.213C1776.06 462.715 1787.26 459.597 1796.71 453.311C1804.27 448.084 1808.5 442.476 1810.85 438.208C1812.02 436.071 1812.72 434.265 1813.12 433.005C1813.33 432.375 1813.45 431.882 1813.53 431.553C1813.57 431.388 1813.6 431.264 1813.61 431.184C1813.62 431.145 1813.62 431.116 1813.63 431.099L1813.63 431.082L1813.63 431.082L1813.63 431.081C1813.73 430.469 1814.3 430.052 1814.92 430.149Z" fill="#744F41"/>
<path d="M1821.28 358.725C1865.6 355.686 1911.33 369.647 1911.33 369.647C1911.33 369.647 1913.5 320.532 1890.36 303.943C1867.22 287.354 1831.26 280.55 1799.39 283.44C1767.52 286.329 1740.49 303.738 1731.42 324.186C1722.34 344.633 1724.93 372.537 1724.93 372.537C1756.62 365.405 1788.83 360.786 1821.28 358.725Z" fill="#1890F1"/>
<path d="M1700.59 298.446C1757.46 272.358 1789.5 277.03 1812.25 298.446C1831.93 317.027 1847.51 346.548 1851.38 357.927C1828.94 358.449 1785.64 361.579 1763.72 365.232C1740.77 369.058 1739.2 369.406 1721.98 374.102C1721.98 374.102 1643.72 324.534 1700.59 298.446Z" fill="#FC9729"/>
<path d="M1852.42 390.798C1845.74 387.042 1845.99 369.058 1847.2 358.449C1872.22 359.717 1887.38 360.536 1910.86 369.928C1905.02 390.798 1903.03 420.017 1897.82 459.671C1891.55 457.584 1883.55 437.235 1879.55 433.061C1877.05 418.869 1860.42 398.973 1852.42 390.798Z" fill="#09133C"/>
<path fill-rule="evenodd" clip-rule="evenodd" d="M1881.66 406.473C1881.66 419.453 1873.73 429.975 1863.94 429.975C1863.26 429.975 1862.59 429.923 1861.93 429.824C1863.89 426.146 1865.04 421.637 1865.04 416.766C1865.04 404.565 1857.8 394.639 1848.77 394.337C1851.87 387.526 1857.51 382.972 1863.94 382.972C1873.73 382.972 1881.66 393.494 1881.66 406.473Z" fill="#F5B8A9"/>
<path d="M1485.15 821.354C1488.32 828.259 1498.52 819.075 1558.38 823.884C1573.62 825.109 1603.99 824.518 1635.5 823.299L1626.5 770.253C1595.14 779.595 1569.71 788.601 1562.85 791.003C1546.82 796.621 1522.28 784.538 1505.46 784.997C1492 785.365 1459.71 795.333 1445.7 801.521L1496.98 808.989C1502.44 811.533 1481.98 814.448 1485.15 821.354Z" fill="#F5B8A9"/>
<path d="M1618.67 810.814C1643.72 805.805 1689.63 778.465 1709.46 765.421C1742.02 788.378 1755.72 827.162 1758.51 843.685C1739.55 851.859 1690.36 870.399 1645.28 879.165C1588.93 890.121 1466.32 866.642 1449.62 863.512C1432.93 860.381 1410.49 876.034 1393.8 878.121C1380.44 879.791 1347.01 874.817 1332.23 870.816L1381.8 855.685C1386.8 852.346 1366.14 852.555 1368.23 845.25C1370.32 837.945 1381.8 845.482 1440.23 831.684C1477.8 822.814 1612.41 810.814 1618.67 810.814Z" fill="#F5C6B8"/>
<path d="M1797.64 687.157C1774.68 708.202 1722.61 753.629 1702.16 758.638C1720.59 774.639 1754.85 799.857 1759.03 850.99C1791.72 846.294 1864.94 829.493 1896.25 799.857" stroke="#0071CC" stroke-width="2"/>
<path fill-rule="evenodd" clip-rule="evenodd" d="M1313.7 851.439C1312.35 851.969 1311.06 852.518 1310 853C1310 853 1313 849.284 1312.61 849.439C1312.74 849.387 1312.87 849.335 1313 849.284C1314.51 848.693 1316.1 848.127 1317.56 847.708C1319.01 847.294 1320.4 847 1321.47 847H1358V849.289H1321.47C1320.67 849.289 1319.5 849.519 1318.09 849.922C1316.71 850.319 1315.18 850.862 1313.7 851.439Z" fill="#0071CC"/>
<path d="M837.722 833.25L925.377 586.458H670.759L574.755 810.293L837.722 833.25Z" fill="#8BC7F8"/>
<path d="M839.808 834.815L845.548 814.467L574.755 834.815H839.808Z" fill="#1890F1"/>
<path d="M634.757 901.601L557.537 856.208L645.192 828.555L720.847 875.513L634.757 901.601Z" fill="#09133C"/>
<path d="M823.395 625.068C828.668 625.068 831.521 629.099 829.768 634.072C828.778 636.88 826.53 639.388 823.812 641.039C822.345 642.422 820.767 644.257 820.126 646.076C819.11 648.957 821.686 650.678 823.1 651.178H852.376C856.946 651.178 859.419 654.672 857.899 658.981L848.165 686.592C847.106 688.092 844.223 691.093 841.168 691.093C839.239 691.093 837.603 690.216 836.462 689.292C835.422 687.277 833.216 685.991 830.238 685.991C824.966 685.991 819.271 690.022 817.518 694.995C815.765 699.967 818.618 703.998 823.89 703.998C826.868 703.998 829.98 702.712 832.441 700.698C834.233 699.774 836.488 698.896 838.418 698.896C841.472 698.896 842.239 701.897 842.24 703.398L832.506 731.008C830.987 735.318 826.051 738.811 821.482 738.811H792.206C790.438 739.311 786.649 741.032 785.634 743.913C784.992 745.733 785.276 747.568 785.768 748.951C787.322 750.602 787.801 753.11 786.811 755.918C785.058 760.89 779.363 764.921 774.091 764.921C768.818 764.921 765.965 760.89 767.718 755.918C768.708 753.11 770.955 750.602 773.674 748.951C775.141 747.568 776.719 745.733 777.36 743.913C778.376 741.032 775.8 739.311 774.385 738.811H745.109C740.54 738.811 738.067 735.318 739.587 731.008L749.321 703.398C750.38 701.897 753.263 698.896 756.317 698.896C758.246 698.896 759.883 699.774 761.023 700.698C762.064 702.712 764.27 703.998 767.247 703.998C772.52 703.998 778.215 699.967 779.968 694.995C781.721 690.022 778.868 685.991 773.596 685.991C770.618 685.991 767.506 687.277 765.045 689.292C763.253 690.216 760.997 691.093 759.068 691.093C756.013 691.093 755.247 688.092 755.246 686.592L764.98 658.981C766.499 654.672 771.435 651.178 776.004 651.178H805.28C807.048 650.678 810.836 648.957 811.852 646.076C812.494 644.257 812.21 642.422 811.718 641.039C810.164 639.388 809.685 636.88 810.675 634.072C812.428 629.099 818.123 625.068 823.395 625.068Z" fill="#1890F1"/>
<path d="M678.585 602.632H763.632L688.498 775.334H603.452L678.585 602.632Z" fill="#E6F0FF"/>
<circle r="24.3565" transform="matrix(1 0 -0.285354 0.958422 700.749 650.383)" stroke="#1890F1" stroke-width="15"/>
<path d="M707.946 650.382C706.812 654.192 702.67 657.28 698.695 657.28C694.72 657.28 692.417 654.192 693.551 650.382C694.685 646.572 704.151 639.677 704.151 639.677C704.151 639.677 709.08 646.572 707.946 650.382Z" fill="#09133C"/>
<path fill-rule="evenodd" clip-rule="evenodd" d="M702.586 710.636H645.192L650.41 700.201H707.804L702.586 710.636Z" fill="#8BC7F8"/>
<path d="M24.8322 604.197C33.7021 578.109 38.3979 571.848 74.3993 540.25L82.2257 523.324C84.6477 509.366 97.6917 455.366 95.2697 441.408C95.2697 441.408 135.464 491.493 151.48 496.596C167.538 491.493 171.948 498.063 171.948 498.063C169.537 512.022 165.145 529.001 171.948 540.25C178.752 551.499 177.708 553.587 193.361 567.152C209.014 580.718 230.512 600.577 245.537 607.85C260.561 615.122 288.425 647.631 282.06 666.287C276.79 681.699 190.685 655.945 151.501 650.904C112.234 655.945 30.1022 700.482 24.8322 685.07C18.4668 666.414 15.9623 630.285 24.8322 604.197Z" fill="#763A40"/>
<path d="M215.784 607.85C199.923 615.363 185.174 610.98 179.783 607.85L296.135 1019H370.225L294.57 789.944L215.784 607.85Z" fill="#E6F0FF"/>
<path d="M381.194 768.552C361.159 763.125 368.684 764.377 344.149 733.072C319.614 701.766 255.438 598.979 210.045 571.326C205.487 576.073 199.61 593.24 199.61 593.24C199.61 593.24 274.299 747.996 272.134 753.42C267.381 765.328 291.968 811.321 290.918 819.162C305.739 893.782 330.213 925.468 349.876 1015.34L372.312 1002.3C350.947 951.008 340.339 905.66 322.745 808.727L455 814.999L475.111 808.727C452.153 797.596 401.23 773.978 381.194 768.552Z" fill="#1172C8"/>
<path d="M579.972 797.771L845.548 814.467L575.276 834.815L477.186 822.554L468 812L479.533 804.032L579.972 797.771Z" fill="#53B2FF"/>
<path fill-rule="evenodd" clip-rule="evenodd" d="M690.063 736.724H632.67L637.888 726.289H695.281L690.063 736.724Z" fill="#53B2FF"/>
<path fill-rule="evenodd" clip-rule="evenodd" d="M678.585 761.769H621.191L626.409 751.334H683.803L678.585 761.769Z" fill="#1890F1"/>
<path d="M654.222 697.674C654.836 695.612 657.078 693.941 659.23 693.941C661.381 693.941 662.628 695.612 662.014 697.674C661.4 699.737 656.276 703.469 656.276 703.469C656.276 703.469 653.608 699.737 654.222 697.674Z" fill="#09133C"/>
<path d="M671.962 722.718C672.576 720.656 674.818 718.985 676.969 718.985C679.121 718.985 680.367 720.656 679.753 722.718C679.14 724.781 674.016 728.513 674.016 728.513C674.016 728.513 671.348 724.781 671.962 722.718Z" fill="#09133C"/>
<path d="M635.439 748.806C636.053 746.744 638.295 745.073 640.446 745.073C642.598 745.073 643.844 746.744 643.231 748.806C642.617 750.868 637.493 754.601 637.493 754.601C637.493 754.601 634.825 750.868 635.439 748.806Z" fill="#09133C"/>
<ellipse cx="174.782" cy="403.514" rx="86.239" ry="114.847" transform="rotate(-0.0959775 174.782 403.514)" fill="#82464C"/>
<path d="M231.805 440.583C229.929 436.349 224.125 415.754 221.457 405.986L221.167 445.754C227.345 446.3 230.833 442.534 231.805 440.583Z" fill="#82464C"/>
<path d="M221.457 405.986C224.125 415.754 229.929 436.349 231.805 440.583C230.833 442.534 227.345 446.3 221.167 445.754" stroke="#07133D" stroke-width="1.72141" stroke-linecap="round"/>
<path d="M153.745 249.105C189.129 245.287 214.48 264.37 222.733 274.388L219.733 282.576L176.895 304.198L100.838 286.471C103.338 279.648 109.515 253.878 153.745 249.105Z" fill="#90CFB2"/>
<path d="M241.878 281.749C225.513 262.956 199.356 282.332 191.498 290.632L228.134 326.76L260.556 370.632C262.783 357.517 262.335 305.241 241.878 281.749Z" fill="#FDE533"/>
<path d="M259.929 359.386C259.175 353.107 256.908 344.323 252.511 337.208C216.494 278.92 142.693 257.402 93.9093 287.544C45.1259 317.687 49.0868 385.661 64.8397 413.793C80.5927 441.924 89.7254 448.266 98.2168 456.467C104.385 439.636 115.17 429.815 118.39 411.005L137.342 385.844C168.857 370.352 185.65 352.814 197.115 338.347C206.354 326.688 222.204 324.904 231.711 336.345C241.427 348.036 252.214 363.971 258.113 381.696C262.008 373.508 260.683 365.665 259.929 359.386Z" fill="#1F6D48"/>
<ellipse cx="201.498" cy="414.825" rx="3.82791" ry="4.68305" transform="rotate(5.33554 201.498 414.825)" fill="#07133D"/>
<ellipse rx="3.8045" ry="4.68106" transform="matrix(0.995817 0.09137 -0.0945971 0.995516 243.042 412.729)" fill="#07133D"/>
<path d="M198.705 385.115C195.727 386.202 189.158 390.422 186.709 398.606" stroke="#07133D" stroke-width="1.72141" stroke-linecap="round"/>
<path d="M242.09 383.475C244.036 384.131 246.471 385.562 247.096 390.465" stroke="#07133D" stroke-width="1.72141" stroke-linecap="round"/>
<path d="M186.666 440.848C186.162 453.956 191.243 468.718 215.846 471.737" stroke="#FC6483" stroke-width="1.72141" stroke-linecap="round"/>
<path fill-rule="evenodd" clip-rule="evenodd" d="M141.327 389.516C139.879 384.964 136.875 381.373 132.666 379.83C124.292 376.761 114.319 382.963 110.391 393.681C106.463 404.4 110.067 415.577 118.44 418.646C122.65 420.188 127.263 419.389 131.309 416.85C129.877 412.346 129.967 406.902 131.921 401.571C133.875 396.241 137.323 392.027 141.327 389.516Z" fill="#763A40"/>
<ellipse cx="110.706" cy="438.341" rx="12.1113" ry="27.2909" transform="rotate(20.1271 110.706 438.341)" fill="#FC9729"/>
<path d="M183.957 593.763L168.304 589.589C139.955 572.197 75.8484 541.691 46.2125 558.805C9.16752 580.197 14.9069 702.81 36.8208 789.423C54.3519 858.712 58.039 959.864 57.6912 1001.78L340.485 1010.65L183.957 593.763Z" fill="#1172C8"/>
<path d="M161.885 611.547L170.523 580.452C171.63 576.466 169.515 572.293 165.646 570.829L115.792 551.965C114.978 551.657 114.219 551.218 113.547 550.666L75.8803 519.74C71.082 515.8 63.82 518.59 62.8934 524.729L61.2669 535.504C60.9796 537.408 60.0151 539.144 58.5506 540.394L47.6228 549.723C43.5423 553.206 43.9796 559.64 48.494 562.539L95.7444 592.883C96.1149 593.121 96.5043 593.328 96.9087 593.502L151.019 616.756C155.471 618.669 160.588 616.216 161.885 611.547Z" fill="#1890F1"/>
<path d="M210.788 592.006L192.523 575.804C190.168 573.714 189.257 570.438 190.196 567.433L193.596 556.552C194.766 552.809 199.734 552.06 201.955 555.291C202.13 555.546 202.28 555.818 202.402 556.102L206.643 565.999C207.778 568.647 210.25 570.48 213.113 570.798L218.437 571.39C223.156 571.914 226.382 576.408 225.37 581.046L223.913 587.727C222.609 593.7 215.361 596.063 210.788 592.006Z" fill="#1890F1"/>
<path d="M374.411 810.814C349.367 805.805 303.452 778.465 283.625 765.421C251.067 788.378 237.362 827.162 234.58 843.685C253.537 851.859 302.722 870.399 347.802 879.165C404.152 890.121 526.765 866.642 543.461 863.512C560.158 860.381 579.463 874.469 596.159 876.556C609.516 878.225 642.422 870.642 657.205 866.642L602.93 857.772C597.921 854.433 616.148 858.12 624.844 854.642C617.331 850.468 573.724 834.467 552.853 831.684C515.286 822.814 380.672 810.814 374.411 810.814Z" fill="#82464C"/>
<path d="M527.286 828.963C519.069 831.483 477.993 827.117 457 825.5C453.405 825.58 444.074 821.535 439 821.344L461.5 805.629C475.217 805.915 490.974 800.471 503.785 801.563C517.197 802.708 547.807 816.967 561.435 823.953L506.502 821.344C500.908 823.569 519.504 823.752 527.286 828.963Z" fill="#82464C"/>
<path d="M506.405 819.685C313.98 805.075 216.132 717.246 191.262 671.505V837.424C275.161 880.417 392.661 894.296 506.405 871.339V819.685Z" fill="#1172C8"/>
<path d="M270.569 748.725C286.743 762.986 322.745 791.822 337.354 793.074C351.963 794.326 429.629 808.63 454.5 813.499M305.527 873.947C311.266 875.164 325.667 877.912 337.354 879.165" stroke="#0066B8"/>
<path fill-rule="evenodd" clip-rule="evenodd" d="M607.97 812L637.997 856.4L635.116 860L622.174 857.911L595.997 820.244L607.97 812Z" fill="#FDE533"/>
</g>
<defs>
<clipPath id="clip0_403_2">
<rect width="2000" height="1000" fill="white"/>
</clipPath>
</defs>
</svg>
